# Blender v2.93.5 OBJ File: 'step-7.blend'
# www.blender.org
mtllib step-7.mtl
o IKE170029
v -0.385000 0.770000 -0.195000
v -0.385000 0.770000 0.195000
v 0.385000 0.770000 0.195000
v 0.385000 0.770000 -0.195000
v 0.385000 0.725000 0.195000
v -0.385000 0.725000 0.195000
v -0.385000 0.725000 -0.195000
v 0.385000 0.725000 -0.195000
v -0.385000 0.725000 -0.195000
v -0.385000 0.725000 0.195000
v -0.340000 0.725000 0.195000
v -0.340000 0.725000 -0.195000
v -0.340000 0.045000 0.195000
v -0.385000 0.045000 0.195000
v -0.385000 0.045000 -0.195000
v -0.340000 0.045000 -0.195000
v 0.340000 0.725000 -0.195000
v 0.340000 0.725000 0.195000
v 0.385000 0.725000 0.195000
v 0.385000 0.725000 -0.195000
v 0.385000 0.045000 0.195000
v 0.340000 0.045000 0.195000
v 0.340000 0.045000 -0.195000
v 0.385000 0.045000 -0.195000
v -0.340000 0.395000 -0.195000
v -0.340000 0.395000 0.195000
v 0.340000 0.395000 0.195000
v 0.340000 0.395000 -0.195000
v 0.340000 0.375000 0.195000
v -0.340000 0.375000 0.195000
v -0.340000 0.375000 -0.195000
v 0.340000 0.375000 -0.195000
v -0.010000 0.725000 -0.195000
v -0.010000 0.725000 0.195000
v 0.010000 0.725000 0.195000
v 0.010000 0.725000 -0.195000
v 0.010000 0.395000 0.195000
v -0.010000 0.395000 0.195000
v -0.010000 0.395000 -0.195000
v 0.010000 0.395000 -0.195000
v -0.010000 0.375000 -0.195000
v -0.010000 0.375000 0.195000
v 0.010000 0.375000 0.195000
v 0.010000 0.375000 -0.195000
v 0.010000 0.045000 0.195000
v -0.010000 0.045000 0.195000
v -0.010000 0.045000 -0.195000
v 0.010000 0.045000 -0.195000
v -0.385000 0.045000 -0.195000
v -0.385000 0.045000 0.195000
v 0.385000 0.045000 0.195000
v 0.385000 0.045000 -0.195000
v 0.385000 -0.000000 0.195000
v -0.385000 -0.000000 0.195000
v -0.385000 0.000000 -0.195000
v 0.385000 0.000000 -0.195000
vt 0.000000 1.000000
vt 0.000000 0.000000
vt 1.000000 0.000000
vt 1.000000 1.000000
vt -0.000000 0.000000
vt 1.000000 0.000000
vt 1.000000 1.000000
vt -0.000000 1.000000
vt 0.000000 1.000000
vt 0.000000 0.000000
vt 1.000000 0.000000
vt 1.000000 1.000000
vt 0.000000 0.000000
vt 1.000000 1.000000
vt 0.000000 1.000000
vt 0.000000 0.000000
vt 1.000000 0.000000
vt 1.000000 1.000000
vt 0.000000 1.000000
vt 1.000000 0.000000
vt 0.000000 1.000000
vt 0.000000 0.000000
vt 1.000000 0.000000
vt 1.000000 1.000000
vt 0.000000 0.000000
vt 1.000000 0.000000
vt 1.000000 1.000000
vt 0.000000 1.000000
vt 0.000000 1.000000
vt 0.000000 0.000000
vt 1.000000 0.000000
vt 1.000000 1.000000
vt 0.000000 0.000000
vt 1.000000 1.000000
vt 0.000000 1.000000
vt 0.000000 0.000000
vt 1.000000 0.000000
vt 1.000000 1.000000
vt 0.000000 1.000000
vt 1.000000 0.000000
vt 0.000000 1.000000
vt 0.000000 0.000000
vt 1.000000 0.000000
vt 1.000000 1.000000
vt 0.000000 0.000000
vt 1.000000 0.000000
vt 1.000000 1.000000
vt 0.000000 1.000000
vt 0.000000 1.000000
vt 0.000000 0.000000
vt 1.000000 0.000000
vt 1.000000 1.000000
vt 0.000000 0.000000
vt 1.000000 1.000000
vt 0.000000 1.000000
vt 0.000000 0.000000
vt 1.000000 0.000000
vt 1.000000 1.000000
vt 0.000000 1.000000
vt 1.000000 0.000000
vt 0.000000 1.000000
vt 0.000000 0.000000
vt 1.000000 0.000000
vt 1.000000 1.000000
vt 0.000000 0.000000
vt 1.000000 0.000000
vt 1.000000 1.000000
vt 0.000000 1.000000
vt 0.000000 1.000000
vt 0.000000 0.000000
vt 1.000000 0.000000
vt 1.000000 1.000000
vt 0.000000 0.000000
vt 1.000000 1.000000
vt 0.000000 1.000000
vt 0.000000 0.000000
vt 1.000000 0.000000
vt 1.000000 1.000000
vt 0.000000 1.000000
vt 1.000000 0.000000
vt 0.000000 1.000000
vt 0.000000 0.000000
vt 1.000000 0.000000
vt 1.000000 1.000000
vt 0.000000 0.000000
vt 1.000000 0.000000
vt 1.000000 1.000000
vt 0.000000 1.000000
vt 0.000000 1.000000
vt 0.000000 0.000000
vt 1.000000 0.000000
vt 1.000000 1.000000
vt 0.000000 0.000000
vt 1.000000 1.000000
vt 0.000000 1.000000
vt 0.000000 0.000000
vt 1.000000 0.000000
vt 1.000000 1.000000
vt 0.000000 1.000000
vt 1.000000 0.000000
vt 0.000000 1.000000
vt 0.000000 0.000000
vt 1.000000 0.000000
vt 1.000000 1.000000
vt 0.000000 0.000000
vt 1.000000 0.000000
vt 1.000000 1.000000
vt 0.000000 1.000000
vt 0.000000 1.000000
vt 0.000000 0.000000
vt 1.000000 0.000000
vt 1.000000 1.000000
vt 0.000000 0.000000
vt 1.000000 1.000000
vt 0.000000 1.000000
vt 0.000000 0.000000
vt 1.000000 0.000000
vt 1.000000 1.000000
vt 0.000000 1.000000
vt 1.000000 0.000000
vt 0.000000 1.000000
vt 0.000000 0.000000
vt 1.000000 0.000000
vt 1.000000 1.000000
vt -0.000000 0.000000
vt 1.000000 0.000000
vt 1.000000 1.000000
vt -0.000000 1.000000
vt 0.000000 1.000000
vt 0.000000 0.000000
vt 1.000000 0.000000
vt 1.000000 1.000000
vt 0.000000 0.000000
vt 1.000000 1.000000
vt 0.000000 1.000000
vt 0.000000 0.000000
vt 1.000000 0.000000
vt 1.000000 1.000000
vt 0.000000 1.000000
vt 1.000000 0.000000
vn 0.0000 1.0000 0.0000
vn 0.0000 -1.0000 -0.0000
vn 0.0000 0.0000 -1.0000
vn -1.0000 0.0000 0.0000
vn 0.0000 0.0000 1.0000
vn 1.0000 0.0000 0.0000
usemtl 01___Default
s 1
f 1/1/1 2/2/1 3/3/1 4/4/1
f 5/5/2 6/6/2 7/7/2 8/8/2
f 4/9/3 8/10/3 7/11/3 1/12/3
f 1/1/4 7/13/4 6/6/4 2/14/4
f 2/15/5 6/16/5 5/17/5 3/18/5
f 3/19/6 5/5/6 8/20/6 4/4/6
f 9/21/1 10/22/1 11/23/1 12/24/1
f 13/25/2 14/26/2 15/27/2 16/28/2
f 12/29/3 16/30/3 15/31/3 9/32/3
f 9/21/4 15/33/4 14/26/4 10/34/4
f 10/35/5 14/36/5 13/37/5 11/38/5
f 11/39/6 13/25/6 16/40/6 12/24/6
f 17/41/1 18/42/1 19/43/1 20/44/1
f 21/45/2 22/46/2 23/47/2 24/48/2
f 20/49/3 24/50/3 23/51/3 17/52/3
f 17/41/4 23/53/4 22/46/4 18/54/4
f 18/55/5 22/56/5 21/57/5 19/58/5
f 19/59/6 21/45/6 24/60/6 20/44/6
f 25/61/1 26/62/1 27/63/1 28/64/1
f 29/65/2 30/66/2 31/67/2 32/68/2
f 28/69/3 32/70/3 31/71/3 25/72/3
f 25/61/4 31/73/4 30/66/4 26/74/4
f 26/75/5 30/76/5 29/77/5 27/78/5
f 27/79/6 29/65/6 32/80/6 28/64/6
f 33/81/1 34/82/1 35/83/1 36/84/1
f 37/85/2 38/86/2 39/87/2 40/88/2
f 36/89/3 40/90/3 39/91/3 33/92/3
f 33/81/4 39/93/4 38/86/4 34/94/4
f 34/95/5 38/96/5 37/97/5 35/98/5
f 35/99/6 37/85/6 40/100/6 36/84/6
f 41/101/1 42/102/1 43/103/1 44/104/1
f 45/105/2 46/106/2 47/107/2 48/108/2
f 44/109/3 48/110/3 47/111/3 41/112/3
f 41/101/4 47/113/4 46/106/4 42/114/4
f 42/115/5 46/116/5 45/117/5 43/118/5
f 43/119/6 45/105/6 48/120/6 44/104/6
f 49/121/1 50/122/1 51/123/1 52/124/1
f 53/125/2 54/126/2 55/127/2 56/128/2
f 52/129/3 56/130/3 55/131/3 49/132/3
f 49/121/4 55/133/4 54/126/4 50/134/4
f 50/135/5 54/136/5 53/137/5 51/138/5
f 51/139/6 53/125/6 56/140/6 52/124/6
