# Blender v2.93.5 OBJ File: 'top-bottom-shelf-plank.blend'
# www.blender.org
mtllib top-bottom-shelf-plank.mtl
o IKE170029
v -1.155000 0.140000 -0.585000
v -1.155000 0.140000 0.585000
v 1.155000 0.140000 0.585000
v 1.155000 0.140000 -0.585000
v 1.155000 0.005000 0.585000
v -1.155000 0.005000 0.585000
v -1.155000 0.005000 -0.585000
v 1.155000 0.005000 -0.585000
v 1.155000 0.005000 0.585000
v 1.019101 0.140000 0.585000
vt 0.000000 1.000000
vt 0.000000 0.000000
vt 0.941169 0.000000
vt 1.000000 0.000000
vt 1.000000 1.000000
vt -0.000000 0.000000
vt 1.000000 0.000000
vt 1.000000 1.000000
vt -0.000000 1.000000
vt 0.000000 1.000000
vt 0.000000 0.000000
vt 1.000000 0.000000
vt 1.000000 1.000000
vt 0.000000 0.000000
vt 1.000000 1.000000
vt 0.000000 1.000000
vt 0.000000 0.000000
vt 1.000000 0.000000
vt 1.000000 1.000000
vt 0.941169 1.000000
vt 0.000000 1.000000
vt 1.000000 0.000000
vn 0.0000 1.0000 0.0000
vn 0.0000 -1.0000 0.0000
vn 0.0000 0.0000 -1.0000
vn -1.0000 0.0000 0.0000
vn 0.0000 0.0000 1.0000
vn 1.0000 0.0000 0.0000
usemtl 01___Default
s 1
f 1/1/1 2/2/1 10/3/1 3/4/1 4/5/1
f 5/6/2 6/7/2 7/8/2 8/9/2
f 4/10/3 8/11/3 7/12/3 1/13/3
f 1/1/4 7/14/4 6/7/4 2/15/4
f 2/16/5 6/17/5 5/18/5 3/19/5 10/20/5
f 3/21/6 5/6/6 8/22/6 4/5/6
