# Blender v2.93.5 OBJ File: 'side-shelf-plank.blend'
# www.blender.org
mtllib side-shelf-plank.mtl
o IKE170029
v 0.125000 0.725000 0.195000
v 0.125000 0.725000 -0.195000
v 0.080000 0.725000 -0.195000
v 0.080000 0.725000 0.195000
v 0.125000 0.725000 0.195000
v 0.125000 0.725000 -0.195000
v 0.125000 0.045000 0.195000
v 0.080000 0.045000 0.195000
v 0.080000 0.045000 -0.195000
v 0.125000 0.045000 -0.195000
v 0.080000 0.395000 0.195000
v 0.080000 0.395000 -0.195000
v 0.080000 0.375000 0.195000
v 0.080000 0.375000 -0.195000
v 0.125000 0.045000 0.195000
v 0.125000 0.045000 -0.195000
v 0.099847 0.009475 0.000923
vt 0.000000 1.000000
vt 0.000000 0.000000
vt 1.000000 0.000000
vt 1.000000 1.000000
vt 0.000000 0.000000
vt 1.000000 0.000000
vt 1.000000 1.000000
vt 0.000000 1.000000
vt 0.000000 1.000000
vt 0.000000 0.000000
vt 1.000000 0.000000
vt 1.000000 1.000000
vt 0.000000 0.000000
vt 1.000000 1.000000
vt 0.000000 1.000000
vt 0.000000 0.000000
vt 1.000000 0.000000
vt 1.000000 1.000000
vt 0.000000 1.000000
vt 1.000000 0.000000
vt 0.000000 1.000000
vt 0.000000 0.000000
vt 1.000000 0.000000
vt 1.000000 1.000000
vn 0.0000 1.0000 0.0000
vn 0.0000 -1.0000 -0.0000
vn 0.0000 0.0000 -1.0000
vn -1.0000 -0.0000 0.0000
vn 0.0000 -0.0000 1.0000
vn 1.0000 0.0000 0.0000
usemtl 01___Default
s 1
f 3/1/1 4/2/1 5/3/1 6/4/1
f 7/5/2 8/6/2 9/7/2 10/8/2
f 6/9/3 10/10/3 9/11/3 3/12/3
f 3/1/4 9/13/4 8/6/4 4/14/4
f 4/15/5 8/16/5 7/17/5 5/18/5
f 5/19/6 7/5/6 10/20/6 6/4/6
f 11/21/6 13/22/6 14/23/6 12/24/6
l 1 2
l 15 16
